<svg width="9" height="14" viewBox="0 0 9 14" fill="none" xmlns="http://www.w3.org/2000/svg">
<path d="M0.5 0C0.367392 0 0.240215 0.0526784 0.146447 0.146447C0.0526785 0.240215 0 0.367392 0 0.5V7.498C0 8.02843 0.210714 8.53714 0.585786 8.91221C0.960859 9.28729 1.46957 9.498 2 9.498H2.5V11.998C2.5 12.2605 2.55171 12.5205 2.65216 12.763C2.75262 13.0055 2.89987 13.2259 3.08549 13.4115C3.27112 13.5971 3.49149 13.7444 3.73402 13.8448C3.97655 13.9453 4.23649 13.997 4.499 13.997C4.76151 13.997 5.02145 13.9453 5.26398 13.8448C5.50651 13.7444 5.72688 13.5971 5.91251 13.4115C6.09813 13.2259 6.24538 13.0055 6.34583 12.763C6.44629 12.5205 6.498 12.2605 6.498 11.998V9.498H7C7.53043 9.498 8.03914 9.28729 8.41421 8.91221C8.78929 8.53714 9 8.02843 9 7.498V0.5C9 0.367392 8.94732 0.240215 8.85355 0.146447C8.75979 0.0526784 8.63261 0 8.5 0H0.5ZM8 5.998H1V1H4V2.502C4 2.63461 4.05268 2.76179 4.14645 2.85555C4.24021 2.94932 4.36739 3.002 4.5 3.002C4.63261 3.002 4.75979 2.94932 4.85355 2.85555C4.94732 2.76179 5 2.63461 5 2.502V1H6V3.496C6 3.62861 6.05268 3.75579 6.14645 3.84955C6.24021 3.94332 6.36739 3.996 6.5 3.996C6.63261 3.996 6.75979 3.94332 6.85355 3.84955C6.94732 3.75579 7 3.62861 7 3.496V1H8V5.998ZM1 7.498V6.998H8V7.498C8 7.76322 7.89464 8.01757 7.70711 8.20511C7.51957 8.39264 7.26522 8.498 7 8.498H5.998C5.86539 8.498 5.73821 8.55068 5.64445 8.64445C5.55068 8.73821 5.498 8.86539 5.498 8.998V11.998C5.498 12.263 5.39275 12.5171 5.2054 12.7044C5.01805 12.8917 4.76395 12.997 4.499 12.997C4.23405 12.997 3.97995 12.8917 3.7926 12.7044C3.60525 12.5171 3.5 12.263 3.5 11.998V8.998C3.5 8.86539 3.44732 8.73821 3.35355 8.64445C3.25979 8.55068 3.13261 8.498 3 8.498H2C1.73478 8.498 1.48043 8.39264 1.29289 8.20511C1.10536 8.01757 1 7.76322 1 7.498Z" fill="white"/>
</svg>
