<svg width="14" height="14" viewBox="0 0 14 14" fill="none" xmlns="http://www.w3.org/2000/svg">
<path d="M4.146 4.146C4.19245 4.09944 4.24762 4.06249 4.30837 4.03729C4.36911 4.01208 4.43423 3.99911 4.5 3.99911C4.56577 3.99911 4.63089 4.01208 4.69163 4.03729C4.75238 4.06249 4.80755 4.09944 4.854 4.146L7 6.293L9.146 4.146C9.23989 4.05211 9.36722 3.99937 9.5 3.99937C9.63278 3.99937 9.76011 4.05211 9.854 4.146C9.94789 4.23989 10.0006 4.36722 10.0006 4.5C10.0006 4.63278 9.94789 4.76011 9.854 4.854L7.707 7L9.854 9.146C9.94789 9.23989 10.0006 9.36722 10.0006 9.5C10.0006 9.63278 9.94789 9.76011 9.854 9.854C9.76011 9.94789 9.63278 10.0006 9.5 10.0006C9.36722 10.0006 9.23989 9.94789 9.146 9.854L7 7.707L4.854 9.854C4.76011 9.94789 4.63278 10.0006 4.5 10.0006C4.36722 10.0006 4.23989 9.94789 4.146 9.854C4.05211 9.76011 3.99937 9.63278 3.99937 9.5C3.99937 9.36722 4.05211 9.23989 4.146 9.146L6.293 7L4.146 4.854C4.09944 4.80755 4.06249 4.75238 4.03729 4.69163C4.01208 4.63089 3.99911 4.56577 3.99911 4.5C3.99911 4.43423 4.01208 4.36911 4.03729 4.30837C4.06249 4.24762 4.09944 4.19245 4.146 4.146ZM0 3C0 2.20435 0.316071 1.44129 0.87868 0.87868C1.44129 0.316071 2.20435 0 3 0H11C11.7956 0 12.5587 0.316071 13.1213 0.87868C13.6839 1.44129 14 2.20435 14 3V11C14 11.7956 13.6839 12.5587 13.1213 13.1213C12.5587 13.6839 11.7956 14 11 14H3C2.20435 14 1.44129 13.6839 0.87868 13.1213C0.316071 12.5587 0 11.7956 0 11V3ZM3 1C2.46957 1 1.96086 1.21071 1.58579 1.58579C1.21071 1.96086 1 2.46957 1 3V11C1 11.5304 1.21071 12.0391 1.58579 12.4142C1.96086 12.7893 2.46957 13 3 13H11C11.5304 13 12.0391 12.7893 12.4142 12.4142C12.7893 12.0391 13 11.5304 13 11V3C13 2.46957 12.7893 1.96086 12.4142 1.58579C12.0391 1.21071 11.5304 1 11 1H3Z" fill="white"/>
</svg>
