<svg width="14" height="14" viewBox="0 0 14 14" fill="none" xmlns="http://www.w3.org/2000/svg">
<path d="M9.85196 0.485731L13.5143 4.1474C13.6683 4.30139 13.7904 4.48421 13.8738 4.68542C13.9571 4.88662 14 5.10227 14 5.32005C14 5.53783 13.9571 5.75348 13.8738 5.95468C13.7904 6.15589 13.6683 6.3387 13.5143 6.4927L7.11535 12.8903L11.6098 12.891C11.7434 12.891 11.8724 12.9394 11.9731 13.0272C12.0738 13.115 12.1392 13.2363 12.1574 13.3686L12.1626 13.4438C12.1625 13.5775 12.114 13.7067 12.0261 13.8074C11.9382 13.908 11.8167 13.9735 11.6842 13.9915L11.6098 13.9966L5.41132 13.9974C5.17851 14.0105 4.94553 13.9743 4.72769 13.8911C4.50985 13.8079 4.31206 13.6796 4.14731 13.5146L0.48572 9.85218C0.331728 9.69818 0.209575 9.51537 0.126235 9.31416C0.0428946 9.11296 0 8.89731 0 8.67953C0 8.46175 0.0428946 8.2461 0.126235 8.0449C0.209575 7.84369 0.331728 7.66087 0.48572 7.50688L7.50671 0.485731C7.6607 0.331735 7.84352 0.209579 8.04471 0.126237C8.24591 0.0428956 8.46156 0 8.67933 0C8.89711 0 9.11275 0.0428956 9.31395 0.126237C9.51515 0.209579 9.69797 0.331735 9.85196 0.485731ZM2.36295 7.19216L1.26698 8.28889C1.16346 8.39254 1.10532 8.53304 1.10532 8.67953C1.10532 8.82602 1.16346 8.96652 1.26698 9.07017L4.9293 12.7326C5.03691 12.8402 5.17842 12.8947 5.31993 12.8947L5.34204 12.891L5.37005 12.8925C5.49907 12.881 5.6199 12.8244 5.7113 12.7326L6.80653 11.6366L2.36221 7.19216H2.36295ZM8.2887 1.26701L3.1442 6.41015L7.58852 10.8546L12.7323 5.71142C12.7837 5.66009 12.8244 5.59913 12.8522 5.53204C12.88 5.46495 12.8943 5.39304 12.8943 5.32042C12.8943 5.2478 12.88 5.17588 12.8522 5.10879C12.8244 5.0417 12.7837 4.98075 12.7323 4.92941L9.06996 1.26701C8.96632 1.16349 8.82582 1.10534 8.67933 1.10534C8.53285 1.10534 8.39235 1.16349 8.2887 1.26701Z" fill="white"/>
</svg>
