<?xml version="1.0" encoding="UTF-8"?><!DOCTYPE svg PUBLIC "-//W3C//DTD SVG 1.1//EN" "http://www.w3.org/Graphics/SVG/1.1/DTD/svg11.dtd">
<svg width="62" height="33" viewBox="0 0 62 33" fill="none" xmlns="http://www.w3.org/2000/svg">
    <path fill-rule="evenodd" clip-rule="evenodd" d="M29.2759 22.8965H26.0481C23.9864 25.9542 20.4883 27.9655 16.5199 27.9655C10.1801 27.9655 5.04061 22.8322 5.04061 16.5C5.04061 10.1678 10.1801 5.03454 16.5199 5.03454C20.4883 5.03454 23.9864 7.04583 26.0481 10.1035H29.2754C29.0802 9.91061 28.9073 9.68879 28.7634 9.43981C28.0272 8.16623 28.2865 6.59145 29.3 5.61426C28.7234 4.93957 28.0942 4.31109 27.4187 3.73517C26.4403 4.74743 24.8637 5.00632 23.5886 4.27105C22.3123 3.53505 21.7486 2.03964 22.1394 0.686163C21.3107 0.392365 20.452 0.161713 19.5692 0C19.2296 1.36655 17.9932 2.37938 16.5199 2.37938C15.0467 2.37938 13.8103 1.36655 13.4706 0C12.5878 0.161716 11.7291 0.392375 10.9003 0.686183C11.2913 2.03971 10.7276 3.53523 9.45119 4.27127C8.17608 5.00657 6.5994 4.74763 5.62103 3.73527C4.94557 4.31117 4.31636 4.93961 3.73977 5.61427C4.75336 6.59146 5.01262 8.16623 4.27643 9.43981C3.5395 10.7147 2.04217 11.2777 0.687007 10.8872C0.392847 11.715 0.161911 12.5726 0 13.4544C1.3682 13.7936 2.38225 15.0285 2.38225 16.5C2.38225 17.9715 1.3682 19.2064 0 19.5456C0.161921 20.4274 0.392877 21.2851 0.687065 22.1129C2.04215 21.7227 3.53932 22.2857 4.27619 23.5604C5.01232 24.8339 4.75317 26.4085 3.73978 27.3857C4.31634 28.0604 4.94549 28.6888 5.62091 29.2646C6.59929 28.2524 8.1759 27.9935 9.45097 28.7287C10.7274 29.4648 11.291 30.9602 10.9001 32.3137C11.729 32.6076 12.5877 32.8383 13.4706 33C13.8103 31.6335 15.0467 30.6206 16.5199 30.6206C17.9932 30.6206 19.2296 31.6335 19.5692 33C20.4521 32.8383 21.3108 32.6076 22.1396 32.3138C21.7489 30.9603 22.3125 29.4649 23.5889 28.7289C24.8639 27.9937 26.4404 28.2526 27.4188 29.2647C28.0943 28.6888 28.7234 28.0604 29.3 27.3858C28.2866 26.4085 28.0275 24.8339 28.7636 23.5604C28.9076 23.3114 29.0806 23.0895 29.2759 22.8965ZM16.5199 26.2758C21.3062 26.2758 25.29 22.8444 26.14 18.3103C26.25 17.7237 26.3075 17.1185 26.3075 16.5C26.3075 15.9238 26.2576 15.3592 26.1619 14.8104H16.6407V18.3103H22.5379C21.76 20.8938 19.36 22.7758 16.5199 22.7758C13.0497 22.7758 10.2365 19.966 10.2365 16.5C10.2365 13.034 13.0497 10.2242 16.5199 10.2242C17.9775 10.2242 19.3192 10.7199 20.3852 11.5517L22.4387 8.71351C20.795 7.46519 18.7441 6.72418 16.5199 6.72418C11.1144 6.72418 6.7323 11.101 6.7323 16.5C6.7323 21.899 11.1144 26.2758 16.5199 26.2758Z" fill="white"/>
    <path d="M37.6956 11.4703H41.456V15.2068H40.0543V14.2606C39.8996 14.576 39.6322 14.8335 39.2519 15.033C38.8782 15.2326 38.4367 15.3323 37.9276 15.3323C36.9867 15.3323 36.194 15.0041 35.5496 14.3475C34.9051 13.6845 34.5829 12.851 34.5829 11.8468C34.5829 10.8298 34.9148 9.98984 35.5786 9.32685C36.2424 8.65743 37.0801 8.32272 38.0919 8.32272C38.9104 8.32272 39.6161 8.548 40.209 8.99858C40.8083 9.44271 41.2014 10.0252 41.3883 10.7462H39.629C39.4936 10.4758 39.2906 10.2666 39.02 10.1186C38.7557 9.96409 38.4464 9.88685 38.0919 9.88685C37.5313 9.88685 37.0834 10.0671 36.7483 10.4275C36.4131 10.788 36.2456 11.2675 36.2456 11.8661C36.2456 12.4326 36.4002 12.8992 36.7096 13.2661C37.0254 13.633 37.4733 13.8165 38.0533 13.8165C38.4335 13.8165 38.7686 13.7328 39.0586 13.5655C39.3551 13.3981 39.571 13.1567 39.7063 12.8413H37.6956V11.4703Z" fill="white"/>
    <path d="M47.4243 10.0124H44.4083V11.0165H47.1536V12.5806H44.4083V13.6427H47.4243V15.2068H42.7649V8.44824H47.4243V10.0124Z" fill="white"/>
    <path d="M53.2429 15.2068L52.7595 13.8068H50.2268L49.7435 15.2068H48.0035L50.4588 8.44824H52.5275L54.9829 15.2068H53.2429ZM50.7682 12.2427H52.2182L51.4932 10.1379L50.7682 12.2427Z" fill="white"/>
    <path d="M59.6564 15.2068L58.0614 12.8606H57.549V15.2068H55.9057V8.44824H58.9217C59.6371 8.44824 60.201 8.65099 60.6134 9.05651C61.0323 9.45559 61.2418 10.0059 61.2418 10.7075C61.2418 11.7439 60.7906 12.4101 59.8884 12.7061L61.6671 15.2068H59.6564ZM59.5791 10.7268C59.5791 10.2505 59.2987 10.0124 58.7381 10.0124H57.549V11.422H58.7381C59.2987 11.422 59.5791 11.1903 59.5791 10.7268Z" fill="white"/>
    <path d="M38.1403 24.9875C37.1285 24.9875 36.2907 24.6528 35.6269 23.9833C34.9631 23.3139 34.6312 22.4804 34.6312 21.4827C34.6312 20.485 34.9631 19.6514 35.6269 18.982C36.2907 18.3126 37.1285 17.9778 38.1403 17.9778C38.9587 17.9778 39.6644 18.2096 40.2573 18.673C40.8566 19.1365 41.2498 19.7415 41.4366 20.4882H39.6773C39.542 20.1921 39.339 19.9604 39.0683 19.793C38.8041 19.6257 38.4947 19.542 38.1403 19.542C37.586 19.542 37.1381 19.7222 36.7966 20.0827C36.4615 20.4431 36.2939 20.9098 36.2939 21.4827C36.2939 22.0555 36.4615 22.5222 36.7966 22.8827C37.1381 23.2431 37.586 23.4233 38.1403 23.4233C38.4947 23.4233 38.8041 23.3397 39.0683 23.1723C39.339 23.0049 39.542 22.7732 39.6773 22.4771H41.4366C41.2498 23.2238 40.8566 23.8289 40.2573 24.2923C39.6644 24.7557 38.9587 24.9875 38.1403 24.9875Z" fill="white"/>
    <path d="M43.1784 18.9916C43.8615 18.3158 44.7025 17.9778 45.7014 17.9778C46.7003 17.9778 47.5381 18.3158 48.2148 18.9916C48.8979 19.6611 49.2395 20.4914 49.2395 21.4827C49.2395 22.4739 48.8979 23.3075 48.2148 23.9833C47.5381 24.6528 46.7003 24.9875 45.7014 24.9875C44.7025 24.9875 43.8615 24.6528 43.1784 23.9833C42.5017 23.3075 42.1634 22.4739 42.1634 21.4827C42.1634 20.4914 42.5017 19.6611 43.1784 18.9916ZM47.0451 20.0923C46.6907 19.7254 46.2428 19.542 45.7014 19.542C45.1601 19.542 44.7122 19.7254 44.3577 20.0923C44.0033 20.4528 43.8261 20.9162 43.8261 21.4827C43.8261 22.0491 44.0033 22.5158 44.3577 22.8827C44.7122 23.2431 45.1601 23.4233 45.7014 23.4233C46.2428 23.4233 46.6907 23.2431 47.0451 22.8827C47.3996 22.5158 47.5768 22.0491 47.5768 21.4827C47.5768 20.9162 47.3996 20.4528 47.0451 20.0923Z" fill="white"/>
    <path d="M52.8212 18.1034C53.8073 18.1034 54.6289 18.4284 55.2863 19.0785C55.9501 19.7222 56.2819 20.5236 56.2819 21.4827C56.2819 22.4417 55.9501 23.2463 55.2863 23.8964C54.6289 24.5401 53.8073 24.8619 52.8212 24.8619H50.2982V18.1034H52.8212ZM52.8212 23.2978C53.3561 23.2978 53.7911 23.1305 54.1263 22.7958C54.4678 22.4546 54.6386 22.0169 54.6386 21.4827C54.6386 20.942 54.4678 20.5043 54.1263 20.1696C53.7911 19.8348 53.3561 19.6675 52.8212 19.6675H51.9416V23.2978H52.8212Z" fill="white"/>
    <path d="M62 19.6675H58.984V20.6716H61.7293V22.2358H58.984V23.2978H62V24.8619H57.3406V18.1034H62V19.6675Z" fill="white"/>
</svg>
