<svg width="14" height="14" viewBox="0 0 14 14" fill="none" xmlns="http://www.w3.org/2000/svg">
<path d="M0 3C0 2.20435 0.316071 1.44129 0.87868 0.87868C1.44129 0.316071 2.20435 0 3 0H11C11.7956 0 12.5587 0.316071 13.1213 0.87868C13.6839 1.44129 14 2.20435 14 3V11C14 11.7956 13.6839 12.5587 13.1213 13.1213C12.5587 13.6839 11.7956 14 11 14H3C2.20435 14 1.44129 13.6839 0.87868 13.1213C0.316071 12.5587 0 11.7956 0 11V3ZM3 1C2.46957 1 1.96086 1.21071 1.58579 1.58579C1.21071 1.96086 1 2.46957 1 3V11C1 11.5304 1.21071 12.0391 1.58579 12.4142C1.96086 12.7893 2.46957 13 3 13H11C11.5304 13 12.0391 12.7893 12.4142 12.4142C12.7893 12.0391 13 11.5304 13 11V3C13 2.46957 12.7893 1.96086 12.4142 1.58579C12.0391 1.21071 11.5304 1 11 1H3Z" fill="white"/>
<path d="M3.0019 6.80814C2.97677 6.86891 2.96388 6.93405 2.96396 6.99982C2.96388 7.06558 2.97677 7.13072 3.0019 7.1915C3.02703 7.25228 3.06391 7.3075 3.11041 7.354C3.15692 7.40051 3.21214 7.43738 3.27291 7.46251C3.33369 7.48764 3.39883 7.50053 3.4646 7.50045L6.50021 7.49974L6.4995 10.5354C6.4995 10.6681 6.55224 10.7955 6.64613 10.8894C6.74002 10.9832 6.86735 11.036 7.00013 11.036C7.13291 11.036 7.26024 10.9832 7.35413 10.8894C7.44802 10.7955 7.50076 10.6681 7.50076 10.5354L7.50005 7.49974L10.5357 7.50045C10.6684 7.50045 10.7958 7.4477 10.8897 7.35382C10.9836 7.25993 11.0363 7.13259 11.0363 6.99982C11.0363 6.86704 10.9836 6.7397 10.8897 6.64582C10.7958 6.55193 10.6684 6.49919 10.5357 6.49919L7.50005 6.49989L7.50076 3.46428C7.50076 3.33151 7.44802 3.20417 7.35413 3.11028C7.26024 3.0164 7.13291 2.96365 7.00013 2.96365C6.86735 2.96365 6.74002 3.0164 6.64613 3.11028C6.55224 3.20417 6.4995 3.33151 6.4995 3.46428L6.50021 6.49989L3.4646 6.49919C3.39883 6.4991 3.33369 6.51199 3.27291 6.53712C3.21214 6.56225 3.15692 6.59913 3.11041 6.64563C3.06391 6.69214 3.02703 6.74736 3.0019 6.80814Z" fill="white"/>
</svg>
